<?xml version="1.0" standalone="no"?>
<!DOCTYPE svg PUBLIC "-//W3C//DTD SVG 20010904//EN"
 "http://www.w3.org/TR/2001/REC-SVG-20010904/DTD/svg10.dtd">
<svg version="1.0" xmlns="http://www.w3.org/2000/svg"
 width="128.000000pt" height="128.000000pt" viewBox="0 0 128.000000 128.000000"
 preserveAspectRatio="xMidYMid meet">
<metadata>
Created by potrace 1.16, written by Peter Selinger 2001-2019
</metadata>
<g transform="translate(0.000000,128.000000) scale(0.100000,-0.100000)"
fill="#000000" stroke="none">
<path d="M0 640 l0 -640 640 0 640 0 0 640 0 640 -640 0 -640 0 0 -640z m500
620 c0 -5 -4 -10 -10 -10 -5 0 -10 5 -10 10 0 6 5 10 10 10 6 0 10 -4 10 -10z
m-184 -59 c-29 -31 -78 -53 -55 -25 6 7 15 12 19 9 4 -2 18 7 30 20 13 14 26
25 29 25 2 0 -8 -13 -23 -29z m-109 -127 c-3 -3 -12 -4 -19 -1 -8 3 -5 6 6 6
11 1 17 -2 13 -5z m140 -90 c-3 -3 -12 -4 -19 -1 -8 3 -5 6 6 6 11 1 17 -2 13
-5z m-66 -51 c-8 -15 -10 -15 -11 -2 0 17 10 32 18 25 2 -3 -1 -13 -7 -23z
m33 -1 c3 -5 -1 -9 -9 -9 -8 0 -12 4 -9 9 3 4 7 8 9 8 2 0 6 -4 9 -8z m-14
-33 c0 -5 5 -7 12 -3 7 4 8 3 4 -5 -4 -7 9 -82 30 -167 27 -107 41 -149 46
-137 5 11 6 9 2 -7 -4 -14 -7 -43 -7 -65 1 -33 -1 -36 -8 -18 -4 13 -14 21
-21 19 -7 -3 -37 -7 -67 -10 -30 -2 -82 -15 -117 -27 -55 -20 -63 -26 -59 -43
3 -12 2 -15 -1 -7 -5 11 -8 11 -16 0 -8 -11 -9 -11 -5 2 3 9 2 20 -3 25 -14
14 -39 166 -33 197 3 17 9 24 13 17 8 -12 58 12 117 56 31 23 93 135 93 167 0
9 5 17 10 17 6 0 10 -5 10 -11z m67 -201 c-3 -8 -6 -5 -6 6 -1 11 2 17 5 13 3
-3 4 -12 1 -19z m693 18 c0 -2 -8 -10 -17 -17 -16 -13 -17 -12 -4 4 13 16 21
21 21 13z m-683 -58 c-3 -8 -6 -5 -6 6 -1 11 2 17 5 13 3 -3 4 -12 1 -19z
m633 -1 c0 -1 -24 -25 -52 -52 l-53 -50 50 53 c46 48 55 57 55 49z m-623 -39
c-3 -8 -6 -5 -6 6 -1 11 2 17 5 13 3 -3 4 -12 1 -19z m503 -71 c0 -2 -10 -12
-22 -23 l-23 -19 19 23 c18 21 26 27 26 19z m-833 -29 c-3 -8 -6 -5 -6 6 -1
11 2 17 5 13 3 -3 4 -12 1 -19z m773 -22 c0 -2 -8 -10 -17 -17 -16 -13 -17
-12 -4 4 13 16 21 21 21 13z m-88 -68 c-6 -7 -25 -22 -44 -32 -39 -23 -32 -13
14 20 38 26 45 29 30 12z m-82 -53 c0 -2 -10 -9 -22 -15 -22 -11 -22 -10 -4 4
21 17 26 19 26 11z m470 -68 c0 -2 -17 -19 -37 -38 l-38 -34 34 38 c33 34 41
42 41 34z m-110 -101 c0 -2 -8 -10 -17 -17 -16 -13 -17 -12 -4 4 13 16 21 21
21 13z"/>
</g>
</svg>
